<?xml version="1.0" encoding="utf-8"?>
<!-- Svg Vector Icons : http://www.onlinewebfonts.com/icon -->
<!DOCTYPE svg PUBLIC "-//W3C//DTD SVG 1.1//EN" "http://www.w3.org/Graphics/SVG/1.1/DTD/svg11.dtd">
<svg version="1.1" xmlns="http://www.w3.org/2000/svg" xmlns:xlink="http://www.w3.org/1999/xlink" x="0px" y="0px" viewBox="0 0 256 256" enable-background="new 0 0 256 256" xml:space="preserve">
<metadata> Svg Vector Icons : http://www.onlinewebfonts.com/icon </metadata>
<g><g><path fill="#555" d="M176.8,169.5c-11.5-5.1-28.6-18.3-53.9-22.8c6.5-6.9,11.4-17.8,16.4-30.6c2.9-7.4,2.4-13.8,2.4-22.8c0-6.7,1.3-17.4-0.4-23.2c-5.6-19.9-19.7-25.3-36.2-25.3c-16.5,0-30.7,5.5-36.2,25.4c-1.6,5.9-0.4,16.5-0.4,23.2c0,9.1-0.5,15.4,2.4,22.9c5.1,12.9,9.9,23.7,16.3,30.6c-25.1,4.6-42,17.7-53.5,22.8C10.1,180.1,10,191.7,10,191.7v19.6l190.7,0v-19.6C200.7,191.6,200.6,180,176.8,169.5z"/><path fill="#555" d="M168.8,50.5H246v15.3h-77.2V50.5L168.8,50.5z"/><path fill="#555" d="M168.8,86.6h45.6v15.3h-45.6V86.6z"/><path fill="#555" d="M168.8,122.4h64.4v15.3h-64.4V122.4z"/></g></g>
</svg>